<svg width="1187.6" height="129.46" enable-background="new 0 0 566.93 566.93" version="1.1" viewBox="0 0 1187.6 129.46" xml:space="preserve" xmlns="http://www.w3.org/2000/svg" xmlns:xlink="http://www.w3.org/1999/xlink"><defs><clipPath id="SVGID_2_"><use width="100%" height="100%" overflow="visible" xlink:href="#SVGID_1_"/></clipPath></defs><g transform="translate(360.39)"><path d="m293.42 50.444c-2.041 2.313-4.992 2.101-9.688 5.089 0.204-0.146 0.354-0.28 0.457-0.398 1.414-1.605-5.56-0.612-8.955 2.812-2.774 2.93-6.739 4.002-10.979 4.549-4.243 0.571-8.739 0.64-12.793 1.739-2.031 0.56-4.254 0.613-6.734 0.937-6.385 1.392-12.743 1.622-19.203 1.26-6.471-0.384-13.026-1.303-20.122-2.72-3.761-0.835-6.703-3.009-9.444-4.783-1.065-0.494-2.193-1.045-3.325-1.442-0.56-0.214-1.117-0.406-1.634-0.626-0.507-0.255-0.982-0.511-1.406-0.78-1.333-0.843-2.519-1.699-3.476-2.774-0.971-1.039-1.894-1.986-2.559-3.163 0.882 1.178 1.833 1.973 2.734 2.92 0.471 0.446 0.921 0.957 1.468 1.378 0.549 0.423 1.135 0.863 1.79 1.333 0.371 0.249 0.566 0.302 0.636 0.222 0.266-0.3-1.259-2.509-1.935-3.331-0.281-0.575-1.844-0.113-2.144-0.71-0.503-0.413-0.9-0.905-1.255-1.445-0.319-0.588-0.604-1.208-0.952-1.823-0.203-0.606-1.056 0.253-1.163-0.056-0.279-0.395-0.471-0.821-0.621-1.242-0.128-0.442-0.181-0.901-0.25-1.315-0.131-0.832-0.247-1.522-0.725-1.909-0.328-0.315-0.668-0.607-0.961-0.904-0.281-0.304-0.553-0.598-0.823-0.889-0.297-0.395-0.586-0.795-0.796-1.27-0.078-0.319-0.112-0.688-0.165-1.034-0.195-1.082-0.357-2.244-0.464-3.425 0.124-0.012 0.253-0.033 0.376-0.044 0.01-0.461-0.095-0.881-0.47-1.286-7e-3 -0.13-0.012-0.26-0.017-0.391 0.01-8e-3 0.017-0.017 0.027-0.028 0.045-0.05 0.073-0.121 0.078-0.21l-0.115-0.029c-0.026-0.837-0.016-1.666 0.035-2.463l0.11 0.018c0.081 1.39 0.501 2.738 1.584 3.821-0.179-0.145-0.319-0.167-0.397-0.079-0.082 0.094-0.098 0.303-0.021 0.624l0.751 0.313c-0.047-0.653-0.086-1.289-0.267-1.866-0.171-0.584-0.395-1.132-0.968-1.622 0 0 0.128-0.578 0.234-0.861-0.21-0.363-0.586-0.293-0.917-0.332-0.01-0.287-9e-3 -0.576 0-0.867 0.334 0.274 0.744 0.843 1.071 1.315 0.368 0.463 0.674 0.851 0.674 0.851 0.732 3.334 2.291 6.271 4.132 8.811-0.058 0.326-0.184 0.621 0.125 0.809 0.317 0.081 0.57 0.206 0.783 0.352 0.283 0.358 0.556 0.725 0.852 1.068 0.084 0.134 0.171 0.271 0.26 0.41l-0.07-0.232c0.758 0.718 1.512 1.429 2.268 2.143 0.131 0.204 0.302 0.357 0.418 0.507 0.473 0.592 0.965 1.201 1.693 1.039 0.148 0.104 0.3 0.212 0.451 0.32l-0.148 0.017 0.229 0.042c0.604 0.487 1.347 0.798 2.023 1.192 0.302 0.46 0.595 0.985 0.957 1.419-0.362-0.434-0.655-0.959-0.957-1.419 0.683 0.355 1.336 0.756 2.042 1.081 0.717 0.298 1.442 0.601 2.176 0.905 4.759 1.824 9.565 2.927 14.501 3.651 4.938 0.714 10.027 0.998 15.421 0.755 5.841-0.291 11.441-1.127 16.851-2.346 5.387-1.214 10.579-1.88 15.758-2.913 5.167-1.029 10.316-2.412 15.388-5.108 3.91-1.943 11.666-3.336 15.592-4.37 5.709 0.374 4.574 6.043 4.381 6.418-0.419 1.028-0.883 1.79-1.407 2.385m-100.38 1.894c0.081 0.069 0.184 0.098 0.323 0.06 0.437 7e-3 1.014-0.198 1.568-0.309 0.573 0.524 1.567 0.777 2.512 0.593-0.642-0.89-1.569-0.799-2.512-0.593-0.279-0.251-0.458-0.562-0.5-0.917 0.042 0.355 0.221 0.666 0.5 0.917-0.554 0.111-1.132 0.316-1.568 0.309-0.139 0.038-0.242 9e-3 -0.323-0.06m-1.225-1.009c0.325-0.17 0.526-0.146 0.667-0.027-0.141-0.119-0.342-0.143-0.667 0.027m-5.19-5.204c0.32 0.462 0.69 0.824 1.235 0.763-0.642-0.598-1.282-1.195-1.923-1.791-0.026-0.044-0.055-0.091-0.082-0.136l3e-3 0.014c0.032 0.115 0.014 0.194-0.032 0.246-0.064 0.074-0.191 0.096-0.336 0.094-0.223-0.049-0.454-0.074-0.675-0.078 0.139 3e-3 0.432 0.076 0.675 0.078 0.267 0.061 0.527 0.158 0.774 0.319 0.111 0.166 0.229 0.333 0.361 0.491m-8.314-9.524-0.038 0.384 0.032 5e-3c0.034-0.13 0.072-0.265 0.109-0.399zm105.42 18.932c-0.158 0.115-0.345 0.24-0.565 0.372 0.189-0.129 0.379-0.254 0.565-0.372m-97.389-9.844c-0.026-0.02-0.052-0.038-0.081-0.055-0.11-0.18-0.217-0.354-0.321-0.529 0.139 0.191 0.272 0.37 0.369 0.528 0.011 0.019 0.023 0.037 0.033 0.056m-6.638-9.498c-0.056-0.051-0.111-0.104-0.164-0.158 0.052 0.042 0.108 0.096 0.164 0.158" fill="#caac6f"/><path d="m210.65 7.251c-0.164 0.2-0.349 0.331-0.559 0.448-0.522 0.293-0.519-0.376-1.278 0.548-0.024 0.03-1.013-0.576-1.039-0.546 0.293-0.473 0.534 0.106-0.05 0.651-0.462-0.074-1.181 0.161-1.726 0.824-0.229 0.279-0.985-0.749-1.122-0.309-0.187 0.674-1.002-0.208-1.314 0.171-0.576 0.704-1.338 0.988-2.17 1.178-1.275 0.277-2.717 0.337-3.73 1.203-0.492 0.445-1.173 0.547-1.822 0.915-1.531 1.296-3.638 2.551-5.299 3.297-1.652 0.741-2.604 2.275-3.968 3.532-0.366 0.311-1.08 0.631-1.08 0.631-0.494 0.1 0.106 2.933-0.359 3.063-0.112 0.066-0.763-1.232-0.842-1.137-0.146 0.178-1.65 0.962-1.741 1.171-0.092 0.207 0.384 1.789 0.267 1.929-0.013 0.016-0.026 0.031-0.04 0.045-0.019 0.025-0.037 0.048-0.058 0.072-0.434 0.529 0.891 1.622 0.288 1.926 0.477-0.497-0.941-1.551-0.394-2.071 8e-3 -8e-3 0.017-0.018 0.024-0.024 0.281-0.344-1.144-0.416-1.556-0.26-0.023 1e-3 -0.039 7e-3 -0.047 0.019-0.044 0.053 0.038 0.212 0.119 0.369 0.082 0.157 0.164 0.313 0.124 0.365-0.01 0.012-0.026 0.018-0.05 0.018-3e-3 5e-3 -5e-3 9e-3 -0.01 0.012-0.201 0.245 1.304 1.097 0.896 1.262-0.023 3e-3 -0.039 8e-3 -0.046 0.018-0.035 0.042 0.089 0.146 0.215 0.243 0.128 0.099 0.257 0.191 0.241 0.212-3e-3 3e-3 -5e-3 4e-3 -0.013 5e-3 -0.385 0.236-1.303 0.133-1.492 0.365-0.029 0.033-0.04 0.074-0.033 0.125 0.012 0.271 0.035 0.516 0.072 0.753 0 0.138-7e-3 0.27-0.087 0.382-0.099 0.052-0.201 0.106-0.302 0.161-0.231-0.159-0.534-0.302-0.84-0.445-3e-3 0.145 0.115 0.388 0.112 0.526 3e-3 -0.138-0.115-0.382-0.112-0.526 0.306 0.143 0.609 0.286 0.84 0.445-0.444 0.231-0.841 0.539-1.209 0.883-0.035-0.025-0.068-0.059-0.098-0.099 0.021 0.044 0.04 0.091 0.056 0.139-0.246 0.232-0.478 0.482-0.702 0.734l-0.075-0.024c0.194-0.391 0.223-0.785-0.131-1.355 0.126 0.169 0.309 0.197 0.414 0.068 0.011-0.014 0.021-0.029 0.031-0.047l-0.371-0.297c-0.103 0.085-0.205 0.177-0.286 0.275-0.203 0.246-0.269 0.536 0.109 0.9 0 0-0.242 0.125-0.361 0.186 0.086 0.15 0.363 0.199 0.593 0.271-0.042 0.08-0.084 0.158-0.124 0.239-0.421-0.252-0.809-0.971-0.809-0.971 0.16-0.575 0.309-1.13 0.52-1.657 0.18-0.538 0.356-1.065 0.587-1.566 0.149-1e-3 0.306 0.021 0.352-0.034 0.014-0.017 0.017-0.041 8e-3 -0.074-0.101-0.146-0.148-0.267-0.167-0.375l0.183-0.45 0.153-0.109-0.113 0.026 0.488-1c0.064-0.058 0.126-0.116 0.187-0.154 0.104-0.073 0.214-0.14 0.283-0.224 0.086-0.105 0.107-0.241-0.033-0.455l0.099-0.174 0.04 0.078-0.021-0.109 0.427-0.74c0.283-0.482 0.618-0.934 0.943-1.416 0.249-0.352 0.507-0.688 0.771-1.012 2.068-2.516 3.543-7.038 6.289-9.015 1.682-1.236 3.235-3.138 4.831-4.396 1.695-1.339 2.36-2.426 4.602-3.372 1.739-0.734 3.385-1.142 5.621-1.799 1.281-1.191 4.187-1.487 5.765-1.692 7.727 2.427 3.332 5.921 3.338 6.131-0.185 1.085-1.915 0.762-2.209 1.12m-31.518 21.957c0.058 0.081 0.134 0.267 0.231 0.391-0.063-0.138-0.141-0.269-0.231-0.391-3e-3 -4e-3 -4e-3 -8e-3 -7e-3 -0.011 2e-3 3e-3 4e-3 6e-3 7e-3 0.011m0.91-1.498c-0.033 0.042-0.055 0.094-0.055 0.164 0.087 0.223 0.124 0.414 0.128 0.593l0.145-0.48 0.203-0.462c-0.167 0.053-0.336 0.084-0.421 0.185m4.343-6.396s0.425-0.106 0.638-0.16c0.137-0.28-0.057-0.48-0.167-0.702-0.391 0.275-0.75 0.583-1.053 0.951-0.026 0.033-0.053 0.066-0.079 0.1-0.299 0.362-0.54 0.786-0.702 1.281 0.069-0.326-0.139-0.388-0.491-0.089l0.047 0.588c0.407-0.24 0.244-1.858 0.564-2.162 0.095-0.083 0.183-0.173 0.261-0.27 0.204-0.244 0.91 0.843 0.982 0.463m0.437-0.934 0.035 0.073c0.168-0.113 0.337-0.228 0.507-0.342l3e-3 -0.03c-0.179 0.098-0.361 0.197-0.545 0.299m-5.475 5.071 6e-3 -1e-3c0.136-0.025 0.24 0.065 0.325 0.177 0.05 0.098 0.116 0.2 0.192 0.296-0.049-0.062-0.109-0.188-0.192-0.296-0.058-0.119-0.089-0.233-0.081-0.341-0.08 0.058-0.166 0.11-0.25 0.165m2.74-2.318c0-1e-3 1e-3 -2e-3 3e-3 -4e-3 -1e-3 1e-3 -3e-3 3e-3 -3e-3 4e-3m-0.304-0.908c0.099 0.286 0.232 0.575 0.29 0.784 0.031 0.059 0.036 0.095 0.019 0.117 0.017-0.021 0.013-0.058-0.019-0.117-0.057-0.208-0.191-0.497-0.29-0.784m-0.177 1.182c9e-3 0.012 0.017 0.023 0.027 0.035-0.01-0.012-0.018-0.023-0.027-0.035m0.219-0.274c9e-3 1e-3 0.017 2e-3 0.027 4e-3 -0.01-2e-3 -0.019-3e-3 -0.027-4e-3m-0.234 0.249c5e-3 8e-3 0.01 0.016 0.016 0.023-6e-3 -7e-3 -0.011-0.015-0.016-0.023m0.226-0.25h3e-3 -3e-3m-0.307 5e-3c0.042-0.05 0.168-0.029 0.294-8e-3 1e-3 0 4e-3 1e-3 7e-3 2e-3 -2e-3 0-5e-3 -2e-3 -7e-3 -2e-3 -0.126-0.021-0.252-0.042-0.294 8e-3m0.071 0.231c1e-3 4e-3 3e-3 5e-3 6e-3 8e-3 -4e-3 -3e-3 -5e-3 -4e-3 -6e-3 -8e-3m-1.822 1.769c0.03-0.026 0.061-0.053 0.083-0.081 0.095-0.115 0.112-0.259-0.052-0.48l-0.394 0.843c0.063-0.061 0.124-0.117 0.184-0.157 7e-3 -4e-3 0.013-9e-3 0.021-0.014-3e-3 0.012-4e-3 0.024-6e-3 0.037 0.063-0.046 0.117-0.093 0.164-0.148m2.024-2.912c0.08-0.024 0.148-0.07 0.199-0.132 0.134-0.164 0.163-0.449 0.069-0.812-0.155 0-0.256 0.044-0.317 0.118-0.138 0.169-0.07 0.496 0.049 0.826" fill="#caac6f"/><path d="m150.57 108.52c-0.266-6e-3 -0.547 0.031-0.868 0.139-0.354 1e-3 -0.409-0.313-0.54-0.627 0.459 0.183 0.931 0.344 1.408 0.488" fill="#fabb00"/><path d="m152.31 109.2c-0.137-0.09-0.282-0.177-0.424-0.257l0.251 0.077z" fill="#fabb00"/><path d="m154.21 110.12c-0.456-0.093-0.853-0.286-1.224-0.502 0.384 0.045 0.793 0.192 1.224 0.502" fill="#fabb00"/><path d="m152.99 109.62c-0.289-0.032-0.569-6e-3 -0.827 0.062 0.079-0.04 0.148-0.087 0.194-0.139 0.079-0.09 0.092-0.198-0.035-0.336l-0.01-7e-3c0.225 0.137 0.446 0.278 0.678 0.42" fill="#fabb00"/><path d="m152.16 109.68c-0.197 0.102-0.473 0.168-0.599 0.229 0.188-0.095 0.389-0.174 0.599-0.229m-0.599 0.228c-3e-3 3e-3 -0.01 6e-3 -0.014 7e-3 5e-3 -1e-3 0.01-5e-3 0.014-7e-3" fill="#fabb00"/><path d="m159.75 117.82c-0.063 0.073-0.247 0.065-0.587-0.059-2.667-1.071-4.37-1.843-6.684-2.972-1.775-1.193-3.461-2.336-5.228-3.573-0.522-0.283-1.068-0.411-1.614-0.551 0.746 0.11 1.502 0.227 2.328 0.38 1.115 0.125 1.775 1.962 3.28 2.822 0.062 0.064 0.136 0.01 0.224-0.089 0.036-0.042 0.075-0.092 0.115-0.141 0.04-0.051 0.082-0.104 0.125-0.153 0.157-0.178 0.333-0.306 0.517-0.109 1.054 0.735 1.866 1.652 2.991 1.989 0.421 0.419 1.661-0.586 2.077-0.171 0.869 0.565 2.726 2.321 2.456 2.627" fill="#fabb00"/><path d="m142.68 106.28c-0.249 0.102-0.498 0.204-0.75 0.306-0.362-0.218-0.48-0.428-0.369-0.553 0.055-0.06 0.158-0.101 0.313-0.115-1.506 0-2.724-0.477-3.862-1.153 4e-3 -6e-3 0.01-0.013 0.016-0.017 0.039-0.046 0.078-0.093 0.117-0.142 0.037-0.047 0.075-0.096 0.116-0.141 0.139-0.158 0.301-0.286 0.566-0.274 0.172 0.232 0.519 0.699 0.519 0.699 1.441-0.269 2.376 0.555 3.334 1.39" fill="#fabb00"/><path d="m138.02 104.77-0.075 0.081c-0.22-0.171-0.438-0.342-0.649-0.506l0.039-0.013c0.229 0.146 0.46 0.294 0.685 0.438" fill="#fabb00"/><path d="m283.29 116.88c-2.206 2.502-5.169 1.935-10.247 4.693 0.253-0.158 0.431-0.301 0.544-0.429 1.251-1.42-5.588-0.892-9.149 2.225-2.964 2.72-6.972 3.501-11.198 3.746-4.236 0.28-8.683 0.019-12.741 0.899-2.035 0.402-4.224 0.359-6.675 0.547-6.339 1.084-12.535 1.041-18.774 0.675-6.247-0.356-12.538-1.113-19.256-1.602-3.559-0.332-6.522-1.88-9.383-2.861-2.123-0.522-4.524-0.337-6.283-0.617-2.753-0.503-5.031-1.411-7.164-2.366 2.469 0.711 4.243 1.411 7.032 2.104 0.342 0.07 0.524 0.058 0.587-0.014 0.281-0.319-1.826-1.812-2.765-2.305-0.473-0.366-1.576 0.774-2.052 0.405-1.148-0.242-2.097-0.932-3.239-1.562-0.167-0.14-0.3-0.073-0.415 0.057-0.066 0.076-0.128 0.174-0.184 0.269-0.056 0.093-0.107 0.186-0.158 0.241-0.053 0.059-0.102 0.083-0.154 0.042-1.614-0.658-2.513-2.449-3.653-2.378-0.851-0.017-1.62-0.033-2.374-0.047-0.464-0.058-0.919-0.128-1.376-0.303-0.266-0.175-0.54-0.354-0.814-0.536-1.982-1.234-4.242-2.625-6.341-3.848l0.065-0.092c-0.251-0.105-0.501-0.22-0.751-0.34 0.753-0.386 2.726-0.566 2.726-0.566 0.829 0.271 1.645 0.536 2.45 0.799 0.82 0.22 1.63 0.438 2.43 0.653 1.608 0.402 3.174 0.834 4.75 1.142 0.18 0.283 0.28 0.584 0.638 0.523 0.297-0.145 0.575-0.215 0.84-0.241 0.462 0.087 0.922 0.174 1.378 0.258 0.151 0.066 0.305 0.134 0.458 0.203l0.011 8e-3c0.16 0.138 0.145 0.26 0.05 0.366-0.037 0.045-0.087 0.085-0.146 0.124-0.207 0.081-0.405 0.188-0.583 0.311 0.113-0.078 0.388-0.18 0.583-0.311 0.251-0.098 0.52-0.158 0.816-0.158-0.249-0.118-0.491-0.227-0.731-0.34l-0.194-0.157c1.054 0.183 2.091 0.402 3.151 0.534 0.232 0.078 0.457 0.149 0.635 0.226 0.722 0.305 1.443 0.61 2.031 0.134 0.187 0.023 0.376 0.049 0.567 0.072l-0.131 0.084 0.232-0.069c0.796 0.104 1.597 0.207 2.398 0.312 1.571 0.152 3.158 0.306 4.783 0.462 10.432 0.852 20.038 1.663 30.889 1.336 5.875-0.27 11.506-0.833 16.981-1.808 5.455-0.959 10.678-1.27 15.897-1.949 5.21-0.676 10.424-1.679 15.646-4.001 4.019-1.651 11.788-2.479 15.721-3.246 2.826 0.391 3.803 1.958 4.131 3.494 0.347 1.528-0.112 3.029-0.207 3.2-0.403 0.836-0.825 1.485-1.282 2.002m-99.679 1.663c0.716 0.332 1.733 0.282 2.612-0.168-0.89-0.656-1.786-0.304-2.612 0.168m-1.377 0.798c3e-3 0 4e-3 -3e-3 9e-3 -6e-3 0.412-0.183 0.875-0.508 1.369-0.792-0.494 0.283-0.957 0.609-1.369 0.792-5e-3 3e-3 -6e-3 6e-3 -9e-3 6e-3m0.596-1.529c0.089 0.181 0.214 0.339 0.366 0.47-0.152-0.131-0.277-0.288-0.366-0.47m-0.749 1.603c0.033-8e-3 0.069-0.021 0.105-0.043-0.036 0.021-0.071 0.035-0.105 0.043m-1.64-0.48c-7e-3 0.01-0.016 0.02-0.024 0.029 9e-3 -9e-3 0.017-0.02 0.024-0.029l1e-3 -1e-3zm-5.601-2.183c-0.895-0.109-1.768-0.29-2.652-0.432 0.232 0.086 0.449 0.165 0.623 0.246 0.021 9e-3 0.041 0.019 0.062 0.027-0.035-1e-3 -0.066-1e-3 -0.099 0 0.185 0.078 0.375 0.151 0.571 0.209 0.532 0.215 1.047 0.315 1.495-0.05m-11.242 0.815 1e-3 -1e-3zm0.511-0.81c-0.146 0.287-0.299 0.569-0.505 0.803 0.206-0.234 0.359-0.516 0.505-0.803m-0.711 1.005c9e-3 -7e-3 0.017-0.013 0.024-0.02-7e-3 7e-3 -0.015 0.013-0.024 0.02m0.734-1.048c-4e-3 4e-3 -6e-3 7e-3 -8e-3 0.011 2e-3 -4e-3 4e-3 -7e-3 8e-3 -0.011m-1.558-0.082c0.449 0.056 1.136-0.033 1.585 0.024-0.449-0.057-1.136 0.032-1.585-0.024m-1.713-2.055c-0.125 0.141 0.016 0.345 0.435 0.521l0.704-0.428c-1.096-0.652-2.143-1.38-3.537-0.903 0 0-0.418-0.417-0.625-0.623-0.191 0.016-0.317 0.101-0.417 0.212-0.12 0.135-0.197 0.313-0.299 0.467 1.235 0.517 2.518 0.826 4.025 0.618-0.138 0.031-0.236 0.08-0.286 0.136m112.18 6.997c-0.164 0.104-0.36 0.214-0.59 0.331 0.199-0.116 0.397-0.225 0.59-0.331m-111.7-7.161c-0.064 0.01-0.127 0.02-0.191 0.027 0.054-0.011 0.119-0.021 0.191-0.027" fill="#fabb00"/><path d="m174.06 116.94c-0.249-0.019-0.488-0.07-0.717-0.138-0.156-0.063-0.313-0.136-0.472-0.211 0.366 0.014 0.761 0.116 1.189 0.349" fill="#fabb00"/><path d="m174.84 116.75c-0.449 0.363-0.965 0.263-1.497 0.05 0.229 0.068 0.468 0.119 0.717 0.138-0.428-0.233-0.824-0.335-1.189-0.349-0.02-9e-3 -0.041-0.019-0.061-0.027-0.175-0.082-0.392-0.16-0.626-0.247 0.887 0.143 1.76 0.324 2.656 0.435" fill="#fabb00"/><path d="m226.45 98.847c-0.104 0.062-0.203 0.146-0.303 0.26-0.049 0.054-0.099 0.116-0.147 0.189-0.197 0.146-0.309-0.118-0.465-0.348z" fill="#009ee0"/><polygon transform="translate(-33.924 -108.65)" points="261.53 207.48 261.38 207.38 261.22 207.4" fill="#009ee0"/><path d="m228.91 98.981c-0.279 0.081-0.553 0.05-0.814-0.012 0.225-0.101 0.492-0.116 0.814 0.012" fill="#009ee0"/><path d="m228.09 98.968c-0.149 0.068-0.283 0.174-0.401 0.306-0.016 0.017-0.031 0.036-0.047 0.055 0.092-0.181 0.134-0.369-0.033-0.499l-7e-3 -3e-3c0.162 0.05 0.322 0.102 0.488 0.141" fill="#009ee0"/><path d="m227.36 99.775c3e-3 -7e-3 7e-3 -0.014 0.01-0.021-3e-3 7e-3 -7e-3 0.014-0.01 0.021m0.01-0.022c0.079-0.154 0.169-0.297 0.271-0.425-0.082 0.165-0.215 0.323-0.271 0.425" fill="#009ee0"/><path d="m233.93 104.27c-0.046 0.053-0.146 0.084-0.312 0.086-1.75-0.044-2.896-0.26-4.478-0.427-1.297-0.423-2.535-0.939-3.836-1.315-0.363-0.042-0.699 0.066-1.038 0.163 0.442-0.206 0.892-0.41 1.392-0.608 0.652-0.359 1.498 1.138 2.559 1.363 0.019 0.014 0.035 0.011 0.049-4e-3 0.042-0.046 0.061-0.211 0.086-0.383 0.027-0.172 0.06-0.352 0.126-0.425 0.041-0.046 0.091-0.053 0.16-3e-3 0.777 0.3 1.46 0.813 2.18 0.774 0.102 0.073 0.214 0 0.329-0.13 0.076-0.086 0.154-0.197 0.231-0.309 0.078-0.113 0.155-0.225 0.229-0.312 0.115-0.128 0.226-0.198 0.328-0.126 0.666 0.234 2.277 1.336 1.995 1.656" fill="#009ee0"/><path d="m221.13 100.55c-0.359-0.059-0.448-0.3-0.246-0.53 0.013-0.016 0.027-0.032 0.044-0.046-0.842 0.648-1.647 0.746-2.458 0.629 0.056-0.286 0.065-0.607 0.231-0.794 0.023-0.026 0.049-0.05 0.079-0.07 0.155 0.135 0.467 0.402 0.467 0.402 8e-3 -9e-3 0.017-0.017 0.024-0.026 0.729-0.827 1.455-0.494 2.197-0.162z" fill="#009ee0"/><path d="m218.45 100.71c-0.167-0.059-0.333-0.116-0.494-0.174l0.021-0.029c0.165 0.041 0.332 0.072 0.495 0.099z" fill="#009ee0"/><path d="m307.98 90.83c-1.205 1.369-2.957 1.042-5.489 3.174 0.034-0.034 0.064-0.067 0.095-0.101 0.666-0.755 0.039-1.175-1.026-1.096-1.066 0.081-2.572 0.659-3.666 1.899-0.193 0.221-0.374 0.461-0.538 0.722-0.251 0.429-0.525 0.807-0.818 1.14-3.291 3.733-8.953 1.744-13.233 3.604-1.17 0.501-2.503 0.523-3.946 0.865-7.329 2.838-14.682 2.077-22.66 3.524-2.128 0.29-4.139-0.556-6.006-0.948-1.334-0.044-2.668 0.711-3.735 0.842-1.675 0.208-3.177-0.083-4.613-0.457 1.568 0.049 2.743 0.28 4.481 0.235 0.159-0.01 0.257-0.043 0.305-0.098 0.289-0.326-1.379-1.357-2.06-1.576-0.099-0.064-0.198-4e-3 -0.3 0.109-0.079 0.09-0.159 0.217-0.241 0.343-0.081 0.128-0.162 0.253-0.243 0.345-0.101 0.115-0.2 0.174-0.297 0.107-0.711 0.073-1.416-0.395-2.208-0.652-0.066-0.046-0.116-0.036-0.152 4e-3 -0.066 0.075-0.09 0.26-0.107 0.437-0.019 0.18-0.029 0.349-0.069 0.394-0.012 0.014-0.027 0.017-0.045 6e-3 -1.067-0.165-1.998-1.61-2.629-1.215-0.478 0.24-0.92 0.461-1.352 0.677-0.275 0.087-0.548 0.162-0.85 0.139-0.192-0.083-0.391-0.168-0.589-0.256-1.422-0.594-3.035-1.103-4.52-1.503l0.014-0.108c-0.168-8e-3 -0.337-0.028-0.508-0.054 0.086-0.164 0.221-0.343 0.375-0.519 0.434-0.493 1.015-0.955 1.015-0.955 2.139-0.128 4.151-0.308 6.101-0.624 0.169 0.217 0.299 0.476 0.49 0.314 0.06-0.1 0.126-0.187 0.188-0.258 0.078-0.087 0.155-0.157 0.235-0.212l0.851-0.149 0.31 0.062-0.148-0.093 1.936-0.372c0.152 0.016 0.297 0.029 0.419 0.056 0.392 0.09 0.788 0.18 1.047-0.113 0.059-0.069 0.112-0.158 0.157-0.273l0.344-0.072-0.057 0.113 0.121-0.126 1.458-0.323c0.951-0.22 1.913-0.441 2.893-0.667 6.294-1.52 12.176-2.273 18.689-3.843 3.516-0.934 6.863-1.976 10.099-3.263 6.441-2.522 12.821-2.086 18.977-6.363 2.375-1.535 7.248-1.945 9.735-2.34 3.68 1.247 3.048 6.617 2.943 6.938-0.321 1.271-0.705 2.052-1.173 2.58m-60.235 7.405c0.411 0.129 0.888-0.053 1.277-0.494 0.073-0.083 0.144-0.175 0.21-0.275-0.451-0.292-0.803-0.131-1.101 0.207-0.139 0.157-0.266 0.354-0.386 0.562m-1.135 0.97c0.169 0.169 0.336 0.34 0.455 0.205-0.119 0.135-0.286-0.036-0.455-0.205m0.505 0.125c-0.011 0.025-0.023 0.047-0.037 0.064 0.014-0.017 0.026-0.039 0.037-0.064m0.63-1.095c-0.227 0.388-0.425 0.81-0.625 1.08 0 3e-3 -3e-3 6e-3 -4e-3 9e-3 1e-3 -3e-3 4e-3 -6e-3 4e-3 -9e-3 0.201-0.27 0.399-0.692 0.625-1.08m-0.615-0.525c0.082 0.138 0.175 0.249 0.277 0.334-0.103-0.086-0.196-0.197-0.277-0.334m-1.015 1.331c-0.049 0.061-0.092 0.164-0.131 0.323 0.04-0.159 0.083-0.263 0.131-0.323m0.011-0.01v-1e-3zm-4.711 0.11c0.266 0.038 0.51 0.018 0.691-0.187 0.06-0.069 0.11-0.157 0.154-0.271l-1.625 0.33c0.155 0.013 0.299 0.027 0.417 0.055 0.014 3e-3 0.029 6e-3 0.042 9e-3 -0.019 0.01-0.037 0.019-0.057 0.027 0.124 0.023 0.251 0.036 0.378 0.037m-0.878-0.149 0.01 4e-3c0.172 0.119 0.141 0.306 0.059 0.493-0.101 0.135-0.185 0.29-0.255 0.454 0.046-0.106 0.176-0.277 0.255-0.454 0.03-0.042 0.062-0.081 0.095-0.118 0.098-0.112 0.21-0.203 0.335-0.267-0.171-0.03-0.334-0.073-0.499-0.112m-5.294 3.194c0.27-0.086 0.634-0.379 0.904-0.465-0.27 0.086-0.634 0.379-0.904 0.465m-1.357-1.607c-0.231 0.263-0.132 0.521 0.257 0.553l0.293-0.621c-0.732-0.26-1.456-0.52-2.089 0.198-0.043 0.049-0.087 0.104-0.128 0.161 0 0-0.34-0.243-0.51-0.364-0.02 0.015-0.036 0.032-0.052 0.05-0.172 0.197-0.148 0.534-0.177 0.83 0.825 0.053 1.62-0.103 2.418-0.821-3e-3 6e-3 -7e-3 0.01-0.012 0.014m68.605-6.575c-0.094 0.093-0.204 0.19-0.335 0.292 0.113-0.102 0.226-0.2 0.335-0.292m-68.494 6.472c-0.033 0.03-0.064 0.06-0.098 0.09 0.03-0.032 0.062-0.06 0.098-0.09" fill="#009ee0"/><path d="m227.15 76.065c-0.191 0.095-0.382 0.235-0.576 0.455-0.249 0.147-0.383-0.113-0.577-0.343z" fill="#bdcd00"/><path d="m228.6 76.036c-0.125-0.032-0.254-0.057-0.38-0.079l0.204-0.021z" fill="#bdcd00"/><path d="m230.23 76.177c-0.353 0.081-0.693 0.055-1.025-4e-3 0.289-0.103 0.623-0.121 1.025 4e-3" fill="#bdcd00"/><path d="m229.21 76.173c-0.215 0.079-0.406 0.204-0.57 0.363 0.119-0.182 0.176-0.37-0.032-0.497l-0.01-3e-3c0.203 0.048 0.403 0.098 0.612 0.137" fill="#bdcd00"/><path d="m228.28 76.985c1e-3 -2e-3 3e-3 -6e-3 4e-3 -7e-3 -1e-3 1e-3 -2e-3 5e-3 -4e-3 7e-3m5e-3 -7e-3c0.069-0.107 0.146-0.208 0.229-0.302 0.042-0.048 0.087-0.095 0.132-0.14-0.05 0.076-0.112 0.152-0.172 0.22-0.018 0.02-0.032 0.038-0.047 0.055-0.018 0.019-0.033 0.035-0.046 0.051-0.04 0.043-0.075 0.082-0.096 0.116" fill="#bdcd00"/><path d="m236.41 81.479c-0.055 0.062-0.182 0.1-0.405 0.108-2.192-0.038-3.632-0.332-5.594-0.459-1.604-0.412-3.139-0.916-4.764-1.283-0.454-0.058-0.877 0.035-1.303 0.115 0.558-0.18 1.129-0.363 1.754-0.562 0.821-0.366 1.851 1.126 3.168 1.343 0.026 0.015 0.049 7e-3 0.067-0.014 0.047-0.053 0.076-0.208 0.111-0.371 0.034-0.162 0.076-0.333 0.151-0.417 0.053-0.059 0.121-0.078 0.215-0.02 0.965 0.295 1.804 0.796 2.704 0.759 0.422 0.251 1.007-1.101 1.425-0.853 0.823 0.274 2.769 1.315 2.471 1.654" fill="#bdcd00"/><path d="m220.45 77.72c-0.421-0.055-0.547-0.268-0.358-0.482 0.027-0.031 0.062-0.062 0.105-0.093-1.06 0.645-2.068 0.741-3.085 0.622 0.063-0.264 0.075-0.562 0.243-0.752 0.038-0.043 0.083-0.08 0.141-0.111 0.195 0.134 0.592 0.403 0.592 0.403 0.922-0.857 1.85-0.521 2.791-0.182z" fill="#bdcd00"/><path d="m217.08 77.87c-0.208-0.059-0.417-0.118-0.619-0.174l0.024-0.027c0.207 0.037 0.417 0.071 0.622 0.098z" fill="#bdcd00"/><path transform="translate(-33.924 -108.65)" d="m363.07 171.52c-1.485 1.685-3.701 1.482-6.93 3.993 0.075-0.069 0.141-0.135 0.195-0.198 0.718-0.812-0.18-1.125-1.581-0.863-1.403 0.261-3.311 1.096-4.613 2.576-0.141 0.157-0.272 0.323-0.397 0.496-0.207 0.3-0.425 0.58-0.655 0.839-4.043 4.584-11.37 2.995-16.896 5.272-1.466 0.609-3.129 0.748-4.935 1.221-9.2 3.431-18.411 3.117-28.423 4.988-2.686 0.353-5.185-0.425-7.507-0.721-1.66 0.035-3.358 0.817-4.705 0.956-2.112 0.221-3.974 5e-3 -5.759-0.328 1.96 5e-3 3.413 0.168 5.6 0.108 0.218-0.013 0.345-0.053 0.397-0.114 0.305-0.344-1.715-1.332-2.551-1.53-0.162-0.083-0.332 0.058-0.507 0.256-0.061 0.068-0.122 0.142-0.181 0.216-0.059 0.075-0.119 0.148-0.179 0.216-0.177 0.199-0.349 0.342-0.511 0.258-0.891 0.096-1.756-0.35-2.739-0.58-0.092-0.046-0.158-0.03-0.206 0.024-0.075 0.085-0.108 0.262-0.132 0.433-0.027 0.169-0.046 0.333-0.093 0.386-0.016 0.02-0.037 0.025-0.062 0.011-1.33-0.133-2.462-1.605-3.263-1.205-0.616 0.227-1.172 0.456-1.715 0.684-0.347 0.093-0.693 0.174-1.067 0.156-0.237-0.079-0.481-0.162-0.728-0.243-1.761-0.574-3.762-1.009-5.617-1.475l0.021-0.107c-0.211-0.014-0.424-0.039-0.638-0.068 0.037-0.052 0.08-0.105 0.129-0.162 0.517-0.586 1.652-1.278 1.652-1.276 2.687-0.124 5.209-0.411 7.664-0.714 0.208 0.218 0.362 0.477 0.606 0.317 0.026-0.033 0.052-0.062 0.076-0.092 0.152-0.171 0.31-0.292 0.466-0.377l1.072-0.148 0.388 0.062-0.184-0.093 2.433-0.434c0.189 8e-3 0.374 0.016 0.523 0.041 0.521 0.081 1.044 0.162 1.374-0.212 0.052-0.061 0.101-0.132 0.143-0.216l0.435-0.085-0.075 0.117 0.152-0.132c0.608-0.117 1.221-0.236 1.834-0.354 1.197-0.244 2.407-0.455 3.639-0.728 7.902-1.817 15.277-2.749 23.416-4.811 4.406-1.1 8.575-2.49 12.619-3.982 8.027-3.08 15.956-3.211 23.572-8.178 2.938-1.794 8.956-2.758 12.015-3.462 4.532 0.807 3.851 6.305 3.719 6.647-0.351 1.224-0.778 2.033-1.291 2.615m-75.282 12.317c0.58 0.146 1.276-0.138 1.807-0.739 0.022-0.028 0.049-0.057 0.073-0.087-0.67-0.327-1.183 5e-3 -1.613 0.496-0.092 0.104-0.181 0.215-0.267 0.33m-0.828 1.119c-2e-3 2e-3 -4e-3 6e-3 -7e-3 9e-3 3e-3 -3e-3 5e-3 -7e-3 7e-3 -9e-3m0.066-0.082zm0.205-0.259c-0.065 0.091-0.132 0.175-0.198 0.251 0.067-0.076 0.133-0.16 0.198-0.251m-0.255 0.313c7e-3 -0.01 0.017-0.018 0.025-0.027-8e-3 9e-3 -0.018 0.017-0.025 0.027m0.499-0.653c-0.072 0.103-0.143 0.204-0.211 0.298 0.068-0.094 0.138-0.195 0.211-0.298m0.304-0.429c-0.078 0.104-0.152 0.211-0.228 0.318 0.076-0.107 0.15-0.213 0.228-0.318m-2.074 0.844c0.186-0.209 0.411-0.042 0.631 0.133-0.22-0.174-0.445-0.342-0.631-0.133m1.326-1.37c0.068 0.095 0.146 0.179 0.227 0.248-0.08-0.069-0.158-0.153-0.227-0.248m-1.475 1.663c-4e-3 0.01-9e-3 0.019-0.013 0.031 4e-3 -0.012 9e-3 -0.021 0.013-0.031m0.1-0.229c-0.036 0.058-0.068 0.128-0.098 0.217 0.03-0.089 0.062-0.159 0.098-0.217m7e-3 -9e-3c-2e-3 3e-3 -4e-3 7e-3 -7e-3 9e-3 3e-3 -2e-3 5e-3 -6e-3 7e-3 -9e-3m0.02-0.027c-5e-3 5e-3 -9e-3 0.012-0.012 0.017 3e-3 -5e-3 7e-3 -0.011 0.012-0.017m0.013-0.02v1e-3zm-5.856 0.211c0.36 0.029 0.692-6e-3 0.926-0.273 0.053-0.058 0.102-0.13 0.144-0.214l-2.041 0.387c-0.041-6e-3 -0.083-0.012-0.124-0.019l0.011 6e-3c0.213 0.112 0.169 0.301 0.061 0.491-0.015 0.016-0.029 0.031-0.043 0.046-0.112 0.128-0.213 0.269-0.296 0.417 0.059-0.106 0.231-0.278 0.339-0.462 0.155-0.169 0.334-0.309 0.549-0.401-0.168-0.027-0.332-0.051-0.494-0.077 0.191 8e-3 0.369 0.014 0.516 0.039 0.016 4e-3 0.033 7e-3 0.049 9e-3 -0.024 9e-3 -0.047 0.019-0.07 0.029 0.154 0.016 0.312 0.027 0.473 0.022m-7.819 3.123c0.337-0.093 0.804-0.396 1.143-0.488-0.338 0.092-0.805 0.394-1.143 0.488m-1.714-1.52c-0.215 0.244-0.082 0.465 0.366 0.487l0.383-0.629c-0.972-0.267-1.929-0.505-2.788 0.379 0 0-0.419-0.251-0.627-0.376-0.044 0.026-0.082 0.059-0.114 0.095-0.172 0.195-0.156 0.505-0.196 0.78 1.029 0.079 2.026-0.061 3.043-0.803-0.026 0.023-0.049 0.046-0.067 0.067m85.834-10.999c-0.114 0.105-0.254 0.218-0.421 0.338 0.142-0.118 0.283-0.23 0.421-0.338m-85.632 10.83c-0.045 0.035-0.091 0.069-0.135 0.102 0.039-0.033 0.083-0.068 0.135-0.102" clip-path="url(#SVGID_2_)" fill="#bdcd00"/></g><path transform="translate(654.4 -329.11)" d="m533.18 388.72c0.14-1.502-3.992-3.628-5.316-4.63-1.621-0.753-5.333-1.003-8.233 1.252-10.021 7.135-29.023 19.779-29.98 34.425-1.059 16.648 26.683 15.522 26.601 21.655 0 4.257-20.025 10.642-20.999 11.892-2.318 2.504-0.654 5.136 2.829 5.259 1.458 0.25 25.123-11.142 25.403-16.271 0.446-7.512-5.761-8.517-12.846-11.642-7.73-3.008-14.44-4.007-14.302-11.895 0.015-3.631 4.558-11.642 11.662-17.151 11.456-8.887 13.296-11.515 17.576-11.642 1.001 0 2.112 1.503 4.49 1.503 2.254 0 3.123-1.376 3.115-2.755m-59.613 13.647c-3.911 3.002-6.737 4.131-10.265 6.383-5.331 3.257-15.222 5.385-15.222 5.385s5.877-5.635 11.201-8.137c8.196-3.881 14.286-3.631 14.286-3.631m19.768 18.526c-2.983-2.255-5.532 2.252-6.842 4.007-1.562 1.753-23.325 17.274-33.28 17.648-5.303 0.252-7.756-2.879-9.346-6.633-3.848-8.014-0.047-14.648-0.047-14.648 8.328-2.502 14.748-4.128 20.537-7.133 9.917-5.133 21.948-13.02 20.541-14.272-11.509-9.263-41.205 2.255-48.456 20.655-4.086 10.39-0.036 22.907 8.582 27.29 12.748 6.509 42.435-17.024 45.873-18.776 3.234-2.005 5.274-5.759 2.438-8.138m-50.74-34.551c-2.719-3.755-7.297 3.757-8.188 5.259-0.597 1.25-12.906 14.27-22.499 24.659-9.637 10.642-18.967 21.657-18.967 21.657-0.546-4.004-0.583-6.635-0.79-9.013-0.647-8.388 0.014-10.014-0.51-16.275-0.892-7.008-4.185-11.768-7.629-9.263-2.039 1.628-0.205 8.264 0.473 11.518 0.552 3.255 0.863 14.27 2.028 25.412 0.288 2.628 0.119 7.135 2.504 8.514 3.402 2.002 7.438-3.131 9.367-6.262 2.796-4.504 29.625-36.678 36.075-41.308 5.34-4.006 11.058-10.891 8.136-14.898m-64.711 16.275c0.971-3.381-0.758-5.633-3.159-5.509-4.175 0.249-4.932 7.388-6.521 14.272-4.688 20.904-8.332 33.046-5.952 35.175 2.254 2.128 5.456 1.002 6.14-0.75 2.408-5.133-1.243-2.881 1.125-12.771 1.111-4.882 7.374-26.913 8.367-30.417m7.625-41.813c0.647-2.252-0.548-4.004-2.425-4.004-3.254 0-2.885 2.878-6.341 8.261-3.893 5.759-4.423 10.892-3.266 12.144 0.949 1.003 2.731 0.124 3.638-0.752 1.574-1.126 0.949-3.255 3.643-7.885 2.335-4.007 4.337-6.135 4.751-7.764m-16.917 34.175c0.324-3.254-4.205-3.128-6.812-3.254-10.176-0.5-20.045 1.502-20.045 1.502 2.562-8.135 3.668-10.14 5.742-17.65 3.349-11.892 2.279-15.772-0.723-15.772-4.257 0-3.704 7.512-4.483 10.516-3.68 13.771-7.243 24.033-7.243 24.033-7.864 2.005-9.602 2.631-17.223 5.386-7.349 2.628-7.776 3.628-8.731 5.506-1.003 2.129 0.714 3.757 2.981 4.381 1.437 0.376 3.402-2.252 9.499-4.881 4.881-2.128 11.258-3.504 11.258-3.504-1.574 5.38-2.517 7.885-4.961 16.774-3.627 12.768-4.621 20.528-5.99 26.161-0.242 1.376-0.794 6.636 3.169 6.886 5.441 0.376 3.996-5.633 4.069-6.759 2.06-16.651 10.464-44.441 10.464-44.441 4.684-1.002 13.633-2.754 21.393-2.754 2.13-1e-3 7.203 1.751 7.636-2.13m-59.943 30.421c0.684-1.752-0.671-4.007-3.227-3.004-1.591 0.499-45.341 26.414-56.263 18.776-11.584-8.138 17.814-34.299 21.622-35.302 2.512-0.749 4.514 1.379 6.614 0.127 4.91-3.005 7.752-9.89-1.379-8.514-13.249 2.005-43.191 32.673-35.406 45.316 11.358 18.655 67.65-15.897 68.039-17.399m-81.813-23.033c-3.911 3.002-6.737 4.131-10.264 6.383-5.33 3.257-15.219 5.385-15.219 5.385s5.875-5.635 11.199-8.137c8.194-3.881 14.284-3.631 14.284-3.631m19.767 18.526c-2.984-2.255-5.529 2.252-6.84 4.007-1.561 1.753-23.327 17.274-33.282 17.648-5.303 0.252-7.755-2.879-9.345-6.633-3.845-8.014-0.046-14.648-0.046-14.648 8.329-2.502 14.75-4.128 20.536-7.133 9.918-5.133 21.95-13.02 20.543-14.272-11.512-9.263-41.207 2.255-48.458 20.655-4.084 10.39-0.033 22.907 8.583 27.29 12.748 6.509 42.435-17.024 45.873-18.776 3.232-2.005 5.271-5.759 2.436-8.138m-49.308-61.841c-2.246-2.879-4.11-2.252-5.98-0.877-1.745 1.379-4.144 12.145-8.515 28.417-5.733 21.154-17.553 65.472-14.342 67.85 5.383 4.257 6.817-3.88 7.244-7.011 1.067-11.016 4.716-28.166 9.654-44.814 10.806-36.43 13.957-40.811 11.939-43.565m-20.654 0c-2.246-2.879-4.109-2.252-5.98-0.877-1.745 1.379-4.143 12.145-8.514 28.417-5.734 21.154-17.554 65.472-14.343 67.85 5.383 4.257 6.817-3.88 7.244-7.011 1.067-11.016 4.718-28.166 9.655-44.814 10.804-36.43 13.955-40.811 11.938-43.565m-40.491 51.449c2.018 7.011-1.074 13.896-5.603 20.405-3.408 5.133-14.584 13.146-19.968 11.018-5.28-2.005-5.164-11.894-2.358-17.15 9.842-18.903 20.35-20.278 20.35-20.278l-0.015-0.627c5.501 0.753 6.628 2.879 7.594 6.632m6.797 4.759c0.388-14.27-9.672-18.276-14.495-17.903-6.723 0.503-14.94 6.636-24.754 22.537-7.693 12.391-3.515 24.909 1.837 27.913 8.78 4.883 36.642-9.014 37.412-32.547m-39.719 10.14c0.685-1.752-0.67-4.007-3.225-3.004-1.59 0.499-45.343 26.414-56.264 18.776-11.583-8.138 17.816-34.299 21.623-35.302 2.511-0.749 4.514 1.379 6.613 0.127 4.911-3.005 7.751-9.89-1.379-8.514-13.247 2.005-43.19 32.673-35.405 45.316 11.357 18.655 67.647-15.897 68.037-17.399" clip-path="url(#SVGID_2_)" fill="#707173"/><path d="m442.74 103.35c0.239 15.646 9.866 26.115 23.708 26.115 15.162 0 24.79-11.312 24.79-27.678 0-11.073-4.814-17.209-15.645-21.423-6.859-2.647-12.997-3.73-17.089-6.738-3.491-2.648-5.056-5.776-5.056-10.229 0-8.426 5.776-14.683 14.442-14.683 7.821 0 12.756 5.174 13.6 14.561h7.941c-0.843-14.561-8.905-22.623-21.541-22.623-13.839 0-22.865 9.987-22.865 23.226 0 11.19 5.656 17.09 17.689 21.181 11.914 3.972 20.098 5.896 20.098 18.291 0 10.472-6.137 17.331-16.246 17.331-9.026 0-15.404-6.62-15.646-17.331zm-47.415-22.743v-29.967h35.981v-8.425h-44.406v85.563h44.406v-8.301h-35.981v-30.446h35.981v-8.424zm-24.31-38.391h-8.423v85.563h8.423zm-73.167 44.529v7.58h43.203c-3.851 16.366-17.933 27.078-33.215 27.078-19.616 0-35.262-15.525-35.262-36.824 0-19.015 14.804-35.864 35.142-35.864 11.553 0 20.458 4.935 28.401 15.044h10.35c-7.942-14.803-21.54-23.226-38.269-23.226-12.637 0-22.746 4.09-31.171 12.394-8.785 8.666-13.356 19.617-13.356 31.529 0 25.636 18.895 45.01 43.443 45.01 23.708 0 42.481-17.45 43.925-42.721zm-89.656-36.105h12.394c8.064 0 14.08 0 18.774 4.212 4.093 3.731 6.138 8.664 6.138 14.681 0 9.749-7.22 16.97-18.293 16.97h-8.062l25.393 41.275h9.989l-20.7-33.454c12.035-0.842 20.7-11.914 20.7-24.912 0-8.905-4.213-17.448-11.072-22.262-6.018-4.212-12.518-4.935-20.58-4.935h-22.985v85.563h8.304zm-59.09 29.967v-29.967h35.983v-8.425h-44.408v85.563h44.408v-8.301h-35.983v-30.446h35.983v-8.424zm-31.89 36.944-46.935-75.335h-10.109v85.563h8.304l-0.963-75.454 46.934 75.454h10.108v-85.563h-8.303zm-108.79-36.944v-29.967h35.984v-8.425h-44.407v85.563h44.408v-8.301h-35.985v-30.446h35.984v-8.424zm12.757-46.695 15.764-20.579h-8.905l-12.275 20.579z" fill="#707173"/></svg>
